/* XPM */
static char *_405d45e84034d6fbe683c5a43f55eefEs5qg0kRyAxED7rA[] = {
/* columns rows colors chars-per-pixel */
"33 32 5 1 ",
"  c None",
". c #5B6986",
"X c #8B9BB5",
"o c #C0CCDC",
"O c #ECF0F1",
/* pixels */
"    OOOOOOOOOOOOOOOOOOOOOOOOO    ",
"    XXXXXXXXXXXXXXXXXXXXXXXXX    ",
"    OOOOOOOOOOOOOOOOOOOOOOOOO    ",
"    OOOOOOOOOOOOOOOOOOOOOOOOO    ",
"    oOOOOOOOOOOOOOOOOOOOOOOOo    ",
"    ooooooooooooooooooooooooo    ",
"    ooooooooooooooooooooooooo    ",
"    ooooooooooooooooooooooooo    ",
"    ooooooooooooooooooooooooo    ",
"    ooo..oooooooooooooooooooo    ",
"    ooo..oooooooooooooooooooo    ",
"    ooo..oooooooooooooooooooo    ",
"    ooo..oooooooooooooooooooo    ",
"    ooooooooooooooooooooooooo    ",
"    ooooooooooooooooooooooooX    ",
"    oXXXXXXXXXXXXXXXXXXXXXXXo    ",
"    ooooooooooooooooooooooooo    ",
"    ooooooooooooooooooooooooo    ",
"    ooo..oooooooooooooooooooo    ",
"    ooo..oooooooooooooooooooo    ",
"    ooo..oooooooooooooooooooo    ",
"    ooo..oooooooooooooooooooo    ",
"    ooo..oooooooooooooooooooo    ",
"    ooooooooooooooooooooooooo    ",
"    ooooooooooooooooooooooooo    ",
"    ooooooooooooooooooooooooo    ",
"    ooooooooooooooooooooooooo    ",
"    ooooooooooooooooooooooooo    ",
"    ooooooooooooooooooooooooo    ",
"    ooooooooooooooooooooooooo    ",
"     ooooooooooooooooooooooo     ",
"                                 "
};
