/* XPM */
static char *_3b257ded4784718f8fae3d6672b620e5eZ493gmGyrBvIEx[] = {
/* columns rows colors chars-per-pixel */
"32 32 2 1 ",
"  c None",
". c #FDAE35",
/* pixels */
"            .    .              ",
"        ... .    . ...          ",
"       .. ...    ... ..         ",
"      ..    ..  ..    ..        ",
"      ..    ......    ..        ",
"      ..   .  ..  .   ..        ",
"       ..  . .  . .  ..         ",
"         .. ..  .. ..           ",
"           ........             ",
"           ......               ",
"              ..                ",
"             ....               ",
"              ..                ",
"             ....               ",
"              ..                ",
"              ..                ",
"              ..                ",
"              ..                ",
"              ..                ",
"              ..                ",
"              ..                ",
"              ..                ",
"              ..                ",
"              ... ..            ",
"              ......            ",
"              .....             ",
"              ......            ",
"              ... ..            ",
"              ..                ",
"                                ",
"                                ",
"                                "
};
